<svg width="192" height="192" viewBox="0 0 192 192" fill="none" xmlns="http://www.w3.org/2000/svg">
  <rect width="192" height="192" rx="40" fill="#4F46E5"/>
  <path d="M96 48C96 43.5817 99.5817 40 104 40H136C140.418 40 144 43.5817 144 48V80C144 84.4183 140.418 88 136 88H104C99.5817 88 96 84.4183 96 80V48Z" fill="white"/>
  <path d="M48 48C48 43.5817 51.5817 40 56 40H88C92.4183 40 96 43.5817 96 48V80C96 84.4183 92.4183 88 88 88H56C51.5817 88 48 84.4183 48 80V48Z" fill="white" opacity="0.8"/>
  <path d="M48 96C48 91.5817 51.5817 88 56 88H88C92.4183 88 96 91.5817 96 96V128C96 132.418 92.4183 136 88 136H56C51.5817 136 48 132.418 48 128V96Z" fill="white" opacity="0.8"/>
  <path d="M96 96C96 91.5817 99.5817 88 104 88H136C140.418 88 144 91.5817 144 96V128C144 132.418 140.418 136 136 136H104C99.5817 136 96 132.418 96 128V96Z" fill="white" opacity="0.6"/>
  <circle cx="72" cy="112" r="8" fill="#4F46E5"/>
  <circle cx="120" cy="64" r="8" fill="#4F46E5"/>
</svg>
